<svg width="32" height="32" viewBox="0 0 32 32" fill="none" xmlns="http://www.w3.org/2000/svg">
  <!-- 원형 배경 -->
  <circle cx="16" cy="16" r="15" fill="#1F2937" stroke="#F9FAFB" stroke-width="2"/>
  
  <!-- S 글자 스타일링 -->
  <path d="M12 10C12 9.44772 12.4477 9 13 9H19C19.5523 9 20 9.44772 20 10C20 10.5523 19.5523 11 19 11H14V13H18C19.1046 13 20 13.8954 20 15V17C20 18.1046 19.1046 19 18 19H13C12.4477 19 12 18.5523 12 18C12 17.4477 12.4477 17 13 17H18V15H14C12.8954 15 12 14.1046 12 13V10Z" fill="#F9FAFB"/>
  
  <!-- 하단 포인트 -->
  <circle cx="16" cy="23" r="2" fill="#3B82F6"/>
</svg>
